<svg xmlns="http://www.w3.org/2000/svg" xmlns:xlink="http://www.w3.org/1999/xlink" contentStyleType="text/css" height="800px" preserveAspectRatio="none" style="width:981px;height:800px;background:#FFFFFF;" version="1.1" viewBox="0 0 981 800" width="981px" zoomAndPan="magnify"><defs/><g><!--class User--><g id="elem_User"><rect codeLine="4" fill="#F1F1F1" height="194.6719" id="User" rx="2.5" ry="2.5" style="stroke:#181818;stroke-width:0.5;" width="205.8877" x="264" y="7"/><ellipse cx="346.7388" cy="23" fill="#ADD1B2" rx="11" ry="11" style="stroke:#181818;stroke-width:1.0;"/><path d="M349.7075,28.6406 Q349.1294,28.9375 348.4888,29.0781 Q347.8481,29.2344 347.145,29.2344 Q344.645,29.2344 343.3169,27.5938 Q342.0044,25.9375 342.0044,22.8125 Q342.0044,19.6875 343.3169,18.0313 Q344.645,16.375 347.145,16.375 Q347.8481,16.375 348.4888,16.5313 Q349.145,16.6875 349.7075,16.9844 L349.7075,19.7031 Q349.0825,19.125 348.4888,18.8594 Q347.895,18.5781 347.27,18.5781 Q345.9263,18.5781 345.2388,19.6563 Q344.5513,20.7188 344.5513,22.8125 Q344.5513,24.9063 345.2388,25.9844 Q345.9263,27.0469 347.27,27.0469 Q347.895,27.0469 348.4888,26.7813 Q349.0825,26.5 349.7075,25.9219 L349.7075,28.6406 Z " fill="#000000"/><text fill="#000000" font-family="sans-serif" font-size="14" lengthAdjust="spacing" textLength="31.9102" x="367.2388" y="27.8467">User</text><line style="stroke:#181818;stroke-width:0.5;" x1="265" x2="468.8877" y1="39" y2="39"/><text fill="#FF0000" font-family="sans-serif" font-size="14" font-weight="bold" lengthAdjust="spacing" textLength="14.8203" x="270" y="55.9951">id</text><text fill="#000000" font-family="sans-serif" font-size="14" lengthAdjust="spacing" textLength="27.4189" x="284.8203" y="55.9951">: int</text><text fill="#000000" font-family="sans-serif" font-size="14" lengthAdjust="spacing" textLength="121.1875" x="270" y="72.292">username: String</text><text fill="#000000" font-family="sans-serif" font-size="14" lengthAdjust="spacing" textLength="89.5576" x="270" y="88.5889">email: String</text><text fill="#000000" font-family="sans-serif" font-size="14" lengthAdjust="spacing" textLength="117.6602" x="270" y="104.8857">password: String</text><text fill="#000000" font-family="sans-serif" font-size="14" lengthAdjust="spacing" textLength="77.7725" x="270" y="121.1826">role: String</text><text fill="#000000" font-family="sans-serif" font-size="14" lengthAdjust="spacing" textLength="93.9668" x="270" y="137.4795">status: String</text><text fill="#000000" font-family="sans-serif" font-size="14" lengthAdjust="spacing" textLength="159.3867" x="270" y="153.7764">created_at: timestamp</text><text fill="#000000" font-family="sans-serif" font-size="14" lengthAdjust="spacing" textLength="163.9668" x="270" y="170.0732">updated_at: timestamp</text><text fill="#000000" font-family="sans-serif" font-size="14" lengthAdjust="spacing" textLength="193.8877" x="270" y="186.3701">notification_status: boolean</text><line style="stroke:#181818;stroke-width:0.5;" x1="265" x2="468.8877" y1="193.6719" y2="193.6719"/></g><!--class Admin--><g id="elem_Admin"><rect codeLine="16" fill="#F1F1F1" height="64.2969" id="Admin" rx="2.5" ry="2.5" style="stroke:#181818;stroke-width:0.5;" width="76.8643" x="328.51" y="376.46"/><ellipse cx="343.51" cy="392.46" fill="#ADD1B2" rx="11" ry="11" style="stroke:#181818;stroke-width:1.0;"/><path d="M346.4788,398.1006 Q345.9006,398.3975 345.26,398.5381 Q344.6194,398.6944 343.9163,398.6944 Q341.4163,398.6944 340.0881,397.0538 Q338.7756,395.3975 338.7756,392.2725 Q338.7756,389.1475 340.0881,387.4913 Q341.4163,385.835 343.9163,385.835 Q344.6194,385.835 345.26,385.9913 Q345.9163,386.1475 346.4788,386.4444 L346.4788,389.1631 Q345.8538,388.585 345.26,388.3194 Q344.6663,388.0381 344.0413,388.0381 Q342.6975,388.0381 342.01,389.1163 Q341.3225,390.1788 341.3225,392.2725 Q341.3225,394.3663 342.01,395.4444 Q342.6975,396.5069 344.0413,396.5069 Q344.6663,396.5069 345.26,396.2413 Q345.8538,395.96 346.4788,395.3819 L346.4788,398.1006 Z " fill="#000000"/><text fill="#000000" font-family="sans-serif" font-size="14" lengthAdjust="spacing" textLength="44.8643" x="357.51" y="397.3067">Admin</text><line style="stroke:#181818;stroke-width:0.5;" x1="329.51" x2="404.3743" y1="408.46" y2="408.46"/><text fill="#0000FF" font-family="sans-serif" font-size="14" font-style="italic" lengthAdjust="spacing" textLength="12.7764" x="334.51" y="425.4551">id</text><text fill="#000000" font-family="sans-serif" font-size="14" lengthAdjust="spacing" textLength="27.4189" x="347.2864" y="425.4551">: int</text><line style="stroke:#181818;stroke-width:0.5;" x1="329.51" x2="404.3743" y1="432.7569" y2="432.7569"/></g><!--class Employee--><g id="elem_Employee"><rect codeLine="20" fill="#F1F1F1" height="64.2969" id="Employee" rx="2.5" ry="2.5" style="stroke:#181818;stroke-width:0.5;" width="101.3369" x="440.28" y="376.46"/><ellipse cx="455.28" cy="392.46" fill="#ADD1B2" rx="11" ry="11" style="stroke:#181818;stroke-width:1.0;"/><path d="M458.2488,398.1006 Q457.6706,398.3975 457.03,398.5381 Q456.3894,398.6944 455.6863,398.6944 Q453.1863,398.6944 451.8581,397.0538 Q450.5456,395.3975 450.5456,392.2725 Q450.5456,389.1475 451.8581,387.4913 Q453.1863,385.835 455.6863,385.835 Q456.3894,385.835 457.03,385.9913 Q457.6863,386.1475 458.2488,386.4444 L458.2488,389.1631 Q457.6238,388.585 457.03,388.3194 Q456.4363,388.0381 455.8113,388.0381 Q454.4675,388.0381 453.78,389.1163 Q453.0925,390.1788 453.0925,392.2725 Q453.0925,394.3663 453.78,395.4444 Q454.4675,396.5069 455.8113,396.5069 Q456.4363,396.5069 457.03,396.2413 Q457.6238,395.96 458.2488,395.3819 L458.2488,398.1006 Z " fill="#000000"/><text fill="#000000" font-family="sans-serif" font-size="14" lengthAdjust="spacing" textLength="69.3369" x="469.28" y="397.3067">Employee</text><line style="stroke:#181818;stroke-width:0.5;" x1="441.28" x2="540.6169" y1="408.46" y2="408.46"/><text fill="#0000FF" font-family="sans-serif" font-size="14" font-style="italic" lengthAdjust="spacing" textLength="12.7764" x="446.28" y="425.4551">id</text><text fill="#000000" font-family="sans-serif" font-size="14" lengthAdjust="spacing" textLength="27.4189" x="459.0564" y="425.4551">: int</text><line style="stroke:#181818;stroke-width:0.5;" x1="441.28" x2="540.6169" y1="432.7569" y2="432.7569"/></g><!--class Technician--><g id="elem_Technician"><rect codeLine="24" fill="#F1F1F1" height="80.5938" id="Technician" rx="2.5" ry="2.5" style="stroke:#181818;stroke-width:0.5;" width="107.5371" x="576.18" y="368.31"/><ellipse cx="591.18" cy="384.31" fill="#ADD1B2" rx="11" ry="11" style="stroke:#181818;stroke-width:1.0;"/><path d="M594.1488,389.9506 Q593.5706,390.2475 592.93,390.3881 Q592.2894,390.5444 591.5863,390.5444 Q589.0863,390.5444 587.7581,388.9037 Q586.4456,387.2475 586.4456,384.1225 Q586.4456,380.9975 587.7581,379.3412 Q589.0863,377.685 591.5863,377.685 Q592.2894,377.685 592.93,377.8412 Q593.5863,377.9975 594.1488,378.2944 L594.1488,381.0131 Q593.5238,380.435 592.93,380.1694 Q592.3363,379.8881 591.7113,379.8881 Q590.3675,379.8881 589.68,380.9662 Q588.9925,382.0287 588.9925,384.1225 Q588.9925,386.2162 589.68,387.2944 Q590.3675,388.3569 591.7113,388.3569 Q592.3363,388.3569 592.93,388.0912 Q593.5238,387.81 594.1488,387.2319 L594.1488,389.9506 Z " fill="#000000"/><text fill="#000000" font-family="sans-serif" font-size="14" lengthAdjust="spacing" textLength="75.5371" x="605.18" y="389.1567">Technician</text><line style="stroke:#181818;stroke-width:0.5;" x1="577.18" x2="682.7171" y1="400.31" y2="400.31"/><text fill="#0000FF" font-family="sans-serif" font-size="14" font-style="italic" lengthAdjust="spacing" textLength="12.7764" x="582.18" y="417.3051">id</text><text fill="#000000" font-family="sans-serif" font-size="14" lengthAdjust="spacing" textLength="27.4189" x="594.9564" y="417.3051">: int</text><text fill="#0000FF" font-family="sans-serif" font-size="14" font-style="italic" lengthAdjust="spacing" textLength="60.7441" x="582.18" y="433.602">group_id</text><text fill="#000000" font-family="sans-serif" font-size="14" lengthAdjust="spacing" textLength="27.4189" x="642.9241" y="433.602">: int</text><line style="stroke:#181818;stroke-width:0.5;" x1="577.18" x2="682.7171" y1="440.9037" y2="440.9037"/></g><!--class Group--><g id="elem_Group"><rect codeLine="29" fill="#F1F1F1" height="96.8906" id="Group" rx="2.5" ry="2.5" style="stroke:#181818;stroke-width:0.5;" width="140.7891" x="647.55" y="55.89"/><ellipse cx="692.2297" cy="71.89" fill="#ADD1B2" rx="11" ry="11" style="stroke:#181818;stroke-width:1.0;"/><path d="M695.1984,77.5306 Q694.6203,77.8275 693.9797,77.9681 Q693.3391,78.1244 692.6359,78.1244 Q690.1359,78.1244 688.8078,76.4837 Q687.4953,74.8275 687.4953,71.7025 Q687.4953,68.5775 688.8078,66.9212 Q690.1359,65.265 692.6359,65.265 Q693.3391,65.265 693.9797,65.4212 Q694.6359,65.5775 695.1984,65.8744 L695.1984,68.5931 Q694.5734,68.015 693.9797,67.7494 Q693.3859,67.4681 692.7609,67.4681 Q691.4172,67.4681 690.7297,68.5462 Q690.0422,69.6087 690.0422,71.7025 Q690.0422,73.7962 690.7297,74.8744 Q691.4172,75.9369 692.7609,75.9369 Q693.3859,75.9369 693.9797,75.6712 Q694.5734,75.39 695.1984,74.8119 L695.1984,77.5306 Z " fill="#000000"/><text fill="#000000" font-family="sans-serif" font-size="14" lengthAdjust="spacing" textLength="42.9297" x="712.7297" y="76.7367">Group</text><line style="stroke:#181818;stroke-width:0.5;" x1="648.55" x2="787.3391" y1="87.89" y2="87.89"/><text fill="#FF0000" font-family="sans-serif" font-size="14" font-weight="bold" lengthAdjust="spacing" textLength="14.8203" x="653.55" y="104.8851">id</text><text fill="#000000" font-family="sans-serif" font-size="14" lengthAdjust="spacing" textLength="27.4189" x="668.3703" y="104.8851">: int</text><text fill="#000000" font-family="sans-serif" font-size="14" lengthAdjust="spacing" textLength="90.6514" x="653.55" y="121.182">name: String</text><text fill="#000000" font-family="sans-serif" font-size="14" lengthAdjust="spacing" textLength="128.7891" x="653.55" y="137.4789">description: String</text><line style="stroke:#181818;stroke-width:0.5;" x1="648.55" x2="787.3391" y1="144.7806" y2="144.7806"/></g><!--class Ticket--><g id="elem_Ticket"><rect codeLine="35" fill="#F1F1F1" height="259.8594" id="Ticket" rx="2.5" ry="2.5" style="stroke:#181818;stroke-width:0.5;" width="177.6553" x="719.12" y="278.68"/><ellipse cx="782.5233" cy="294.68" fill="#ADD1B2" rx="11" ry="11" style="stroke:#181818;stroke-width:1.0;"/><path d="M785.4921,300.3206 Q784.9139,300.6175 784.2733,300.7581 Q783.6327,300.9144 782.9296,300.9144 Q780.4296,300.9144 779.1014,299.2737 Q777.7889,297.6175 777.7889,294.4925 Q777.7889,291.3675 779.1014,289.7112 Q780.4296,288.055 782.9296,288.055 Q783.6327,288.055 784.2733,288.2112 Q784.9296,288.3675 785.4921,288.6644 L785.4921,291.3831 Q784.8671,290.805 784.2733,290.5394 Q783.6796,290.2581 783.0546,290.2581 Q781.7108,290.2581 781.0233,291.3362 Q780.3358,292.3987 780.3358,294.4925 Q780.3358,296.5862 781.0233,297.6644 Q781.7108,298.7269 783.0546,298.7269 Q783.6796,298.7269 784.2733,298.4612 Q784.8671,298.18 785.4921,297.6019 L785.4921,300.3206 Z " fill="#000000"/><text fill="#000000" font-family="sans-serif" font-size="14" lengthAdjust="spacing" textLength="42.3486" x="803.0233" y="299.5267">Ticket</text><line style="stroke:#181818;stroke-width:0.5;" x1="720.12" x2="895.7753" y1="310.68" y2="310.68"/><text fill="#FF0000" font-family="sans-serif" font-size="14" font-weight="bold" lengthAdjust="spacing" textLength="67.1084" x="725.12" y="327.6751">ticket_id</text><text fill="#000000" font-family="sans-serif" font-size="14" lengthAdjust="spacing" textLength="27.4189" x="792.2284" y="327.6751">: int</text><text fill="#0000FF" font-family="sans-serif" font-size="14" font-style="italic" lengthAdjust="spacing" textLength="92.251" x="725.12" y="343.972">technician_id</text><text fill="#000000" font-family="sans-serif" font-size="14" lengthAdjust="spacing" textLength="27.4189" x="817.371" y="343.972">: int</text><text fill="#0000FF" font-family="sans-serif" font-size="14" font-style="italic" lengthAdjust="spacing" textLength="60.7441" x="725.12" y="360.2689">group_id</text><text fill="#000000" font-family="sans-serif" font-size="14" lengthAdjust="spacing" textLength="27.4189" x="785.8641" y="360.2689">: int</text><text fill="#0000FF" font-family="sans-serif" font-size="14" font-style="italic" lengthAdjust="spacing" textLength="81.6484" x="725.12" y="376.5657">category_id</text><text fill="#000000" font-family="sans-serif" font-size="14" lengthAdjust="spacing" textLength="27.4189" x="806.7684" y="376.5657">: int</text><text fill="#0000FF" font-family="sans-serif" font-size="14" font-style="italic" lengthAdjust="spacing" textLength="86.29" x="725.12" y="392.8626">comment_id</text><text fill="#000000" font-family="sans-serif" font-size="14" lengthAdjust="spacing" textLength="27.4189" x="811.41" y="392.8626">: int</text><text fill="#0000FF" font-family="sans-serif" font-size="14" font-style="italic" lengthAdjust="spacing" textLength="101.0967" x="725.12" y="409.1595">attachment_id</text><text fill="#000000" font-family="sans-serif" font-size="14" lengthAdjust="spacing" textLength="27.4189" x="826.2167" y="409.1595">: int</text><text fill="#000000" font-family="sans-serif" font-size="14" lengthAdjust="spacing" textLength="78.3193" x="725.12" y="425.4564">title: String</text><text fill="#000000" font-family="sans-serif" font-size="14" lengthAdjust="spacing" textLength="128.7891" x="725.12" y="441.7532">description: String</text><text fill="#000000" font-family="sans-serif" font-size="14" lengthAdjust="spacing" textLength="93.9668" x="725.12" y="458.0501">status: String</text><text fill="#000000" font-family="sans-serif" font-size="14" lengthAdjust="spacing" textLength="101.4658" x="725.12" y="474.347">priority: String</text><text fill="#000000" font-family="sans-serif" font-size="14" lengthAdjust="spacing" textLength="159.3867" x="725.12" y="490.6439">created_at: timestamp</text><text fill="#000000" font-family="sans-serif" font-size="14" lengthAdjust="spacing" textLength="163.9668" x="725.12" y="506.9407">updated_at: timestamp</text><text fill="#000000" font-family="sans-serif" font-size="14" lengthAdjust="spacing" textLength="165.6553" x="725.12" y="523.2376">resolved_at: timestamp</text><line style="stroke:#181818;stroke-width:0.5;" x1="720.12" x2="895.7753" y1="530.5394" y2="530.5394"/></g><!--class Comment--><g id="elem_Comment"><rect codeLine="51" fill="#F1F1F1" height="162.0781" id="Comment" rx="2.5" ry="2.5" style="stroke:#181818;stroke-width:0.5;" width="175.9668" x="232.96" y="623.68"/><ellipse cx="282.3975" cy="639.68" fill="#ADD1B2" rx="11" ry="11" style="stroke:#181818;stroke-width:1.0;"/><path d="M285.3663,645.3206 Q284.7881,645.6175 284.1475,645.7581 Q283.5069,645.9144 282.8038,645.9144 Q280.3038,645.9144 278.9756,644.2738 Q277.6631,642.6175 277.6631,639.4925 Q277.6631,636.3675 278.9756,634.7113 Q280.3038,633.055 282.8038,633.055 Q283.5069,633.055 284.1475,633.2113 Q284.8038,633.3675 285.3663,633.6644 L285.3663,636.3831 Q284.7413,635.805 284.1475,635.5394 Q283.5538,635.2581 282.9288,635.2581 Q281.585,635.2581 280.8975,636.3363 Q280.21,637.3988 280.21,639.4925 Q280.21,641.5863 280.8975,642.6644 Q281.585,643.7269 282.9288,643.7269 Q283.5538,643.7269 284.1475,643.4613 Q284.7413,643.18 285.3663,642.6019 L285.3663,645.3206 Z " fill="#000000"/><text fill="#000000" font-family="sans-serif" font-size="14" lengthAdjust="spacing" textLength="68.5918" x="302.8975" y="644.5267">Comment</text><line style="stroke:#181818;stroke-width:0.5;" x1="233.96" x2="407.9268" y1="655.68" y2="655.68"/><text fill="#FF0000" font-family="sans-serif" font-size="14" font-weight="bold" lengthAdjust="spacing" textLength="95.0674" x="238.96" y="672.6751">comment_id</text><text fill="#000000" font-family="sans-serif" font-size="14" lengthAdjust="spacing" textLength="27.4189" x="334.0274" y="672.6751">: int</text><text fill="#0000FF" font-family="sans-serif" font-size="14" font-style="italic" lengthAdjust="spacing" textLength="59.0625" x="238.96" y="688.972">ticket_id</text><text fill="#000000" font-family="sans-serif" font-size="14" lengthAdjust="spacing" textLength="27.4189" x="298.0225" y="688.972">: int</text><text fill="#0000FF" font-family="sans-serif" font-size="14" font-style="italic" lengthAdjust="spacing" textLength="50.3125" x="238.96" y="705.2689">user_id</text><text fill="#000000" font-family="sans-serif" font-size="14" lengthAdjust="spacing" textLength="27.4189" x="289.2725" y="705.2689">: int</text><text fill="#000000" font-family="sans-serif" font-size="14" lengthAdjust="spacing" textLength="113.8662" x="238.96" y="721.5657">message: String</text><text fill="#000000" font-family="sans-serif" font-size="14" lengthAdjust="spacing" textLength="159.3867" x="238.96" y="737.8626">created_at: timestamp</text><text fill="#000000" font-family="sans-serif" font-size="14" lengthAdjust="spacing" textLength="163.9668" x="238.96" y="754.1595">updated_at: timestamp</text><text fill="#000000" font-family="sans-serif" font-size="14" lengthAdjust="spacing" textLength="158.7441" x="238.96" y="770.4564">deleted_at: timestamp</text><line style="stroke:#181818;stroke-width:0.5;" x1="233.96" x2="407.9268" y1="777.7581" y2="777.7581"/></g><!--class Notification--><g id="elem_Notification"><rect codeLine="61" fill="#F1F1F1" height="178.375" id="Notification" rx="2.5" ry="2.5" style="stroke:#181818;stroke-width:0.5;" width="171.3867" x="122.25" y="319.42"/><ellipse cx="163.8259" cy="335.42" fill="#ADD1B2" rx="11" ry="11" style="stroke:#181818;stroke-width:1.0;"/><path d="M166.7947,341.0606 Q166.2166,341.3575 165.5759,341.4981 Q164.9353,341.6544 164.2322,341.6544 Q161.7322,341.6544 160.4041,340.0137 Q159.0916,338.3575 159.0916,335.2325 Q159.0916,332.1075 160.4041,330.4512 Q161.7322,328.795 164.2322,328.795 Q164.9353,328.795 165.5759,328.9512 Q166.2322,329.1075 166.7947,329.4044 L166.7947,332.1231 Q166.1697,331.545 165.5759,331.2794 Q164.9822,330.9981 164.3572,330.9981 Q163.0134,330.9981 162.3259,332.0762 Q161.6384,333.1387 161.6384,335.2325 Q161.6384,337.3262 162.3259,338.4044 Q163.0134,339.4669 164.3572,339.4669 Q164.9822,339.4669 165.5759,339.2012 Q166.1697,338.92 166.7947,338.3419 L166.7947,341.0606 Z " fill="#000000"/><text fill="#000000" font-family="sans-serif" font-size="14" lengthAdjust="spacing" textLength="80.3291" x="183.7317" y="340.2667">Notification</text><line style="stroke:#181818;stroke-width:0.5;" x1="123.25" x2="292.6367" y1="351.42" y2="351.42"/><text fill="#FF0000" font-family="sans-serif" font-size="14" font-weight="bold" lengthAdjust="spacing" textLength="112.6084" x="128.25" y="368.4151">notification_id</text><text fill="#000000" font-family="sans-serif" font-size="14" lengthAdjust="spacing" textLength="27.4189" x="240.8584" y="368.4151">: int</text><text fill="#0000FF" font-family="sans-serif" font-size="14" font-style="italic" lengthAdjust="spacing" textLength="50.3125" x="128.25" y="384.712">user_id</text><text fill="#000000" font-family="sans-serif" font-size="14" lengthAdjust="spacing" textLength="27.4189" x="178.5625" y="384.712">: int</text><text fill="#0000FF" font-family="sans-serif" font-size="14" font-style="italic" lengthAdjust="spacing" textLength="119.9707" x="128.25" y="401.0089">mail_template_id</text><text fill="#000000" font-family="sans-serif" font-size="14" lengthAdjust="spacing" textLength="27.4189" x="248.2207" y="401.0089">: int</text><text fill="#000000" font-family="sans-serif" font-size="14" lengthAdjust="spacing" textLength="78.3193" x="128.25" y="417.3057">title: String</text><text fill="#000000" font-family="sans-serif" font-size="14" lengthAdjust="spacing" textLength="113.8662" x="128.25" y="433.6026">message: String</text><text fill="#000000" font-family="sans-serif" font-size="14" lengthAdjust="spacing" textLength="108.1582" x="128.25" y="449.8995">status: boolean</text><text fill="#000000" font-family="sans-serif" font-size="14" lengthAdjust="spacing" textLength="159.3867" x="128.25" y="466.1964">created_at: timestamp</text><text fill="#000000" font-family="sans-serif" font-size="14" lengthAdjust="spacing" textLength="137.5869" x="128.25" y="482.4932">read_at: timestamp</text><line style="stroke:#181818;stroke-width:0.5;" x1="123.25" x2="292.6367" y1="489.795" y2="489.795"/></g><!--class Attachment--><g id="elem_Attachment"><rect codeLine="72" fill="#F1F1F1" height="178.375" id="Attachment" rx="2.5" ry="2.5" style="stroke:#181818;stroke-width:0.5;" width="175.9668" x="622.96" y="615.53"/><ellipse cx="665.7018" cy="631.53" fill="#ADD1B2" rx="11" ry="11" style="stroke:#181818;stroke-width:1.0;"/><path d="M668.6705,637.1706 Q668.0924,637.4675 667.4518,637.6081 Q666.8112,637.7644 666.108,637.7644 Q663.608,637.7644 662.2799,636.1238 Q660.9674,634.4675 660.9674,631.3425 Q660.9674,628.2175 662.2799,626.5613 Q663.608,624.905 666.108,624.905 Q666.8112,624.905 667.4518,625.0613 Q668.108,625.2175 668.6705,625.5144 L668.6705,628.2331 Q668.0455,627.655 667.4518,627.3894 Q666.858,627.1081 666.233,627.1081 Q664.8893,627.1081 664.2018,628.1863 Q663.5143,629.2488 663.5143,631.3425 Q663.5143,633.4363 664.2018,634.5144 Q664.8893,635.5769 666.233,635.5769 Q666.858,635.5769 667.4518,635.3113 Q668.0455,635.03 668.6705,634.4519 L668.6705,637.1706 Z " fill="#000000"/><text fill="#000000" font-family="sans-serif" font-size="14" lengthAdjust="spacing" textLength="82.3184" x="685.8666" y="636.3767">Attachment</text><line style="stroke:#181818;stroke-width:0.5;" x1="623.96" x2="797.9268" y1="647.53" y2="647.53"/><text fill="#FF0000" font-family="sans-serif" font-size="14" font-weight="bold" lengthAdjust="spacing" textLength="113.1074" x="628.96" y="664.5251">attachment_id</text><text fill="#000000" font-family="sans-serif" font-size="14" lengthAdjust="spacing" textLength="27.4189" x="742.0674" y="664.5251">: int</text><text fill="#0000FF" font-family="sans-serif" font-size="14" font-style="italic" lengthAdjust="spacing" textLength="59.0625" x="628.96" y="680.822">ticket_id</text><text fill="#000000" font-family="sans-serif" font-size="14" lengthAdjust="spacing" textLength="27.4189" x="688.0225" y="680.822">: int</text><text fill="#000000" font-family="sans-serif" font-size="14" lengthAdjust="spacing" textLength="78.3193" x="628.96" y="697.1189">title: String</text><text fill="#000000" font-family="sans-serif" font-size="14" lengthAdjust="spacing" textLength="82.2227" x="628.96" y="713.4157">type: String</text><text fill="#000000" font-family="sans-serif" font-size="14" lengthAdjust="spacing" textLength="69.4668" x="628.96" y="729.7126">url: String</text><text fill="#000000" font-family="sans-serif" font-size="14" lengthAdjust="spacing" textLength="159.3867" x="628.96" y="746.0095">created_at: timestamp</text><text fill="#000000" font-family="sans-serif" font-size="14" lengthAdjust="spacing" textLength="163.9668" x="628.96" y="762.3064">updated_at: timestamp</text><text fill="#000000" font-family="sans-serif" font-size="14" lengthAdjust="spacing" textLength="158.7441" x="628.96" y="778.6032">deleted_at: timestamp</text><line style="stroke:#181818;stroke-width:0.5;" x1="623.96" x2="797.9268" y1="785.905" y2="785.905"/></g><!--class TicketCategory--><g id="elem_TicketCategory"><rect codeLine="83" fill="#F1F1F1" height="113.1875" id="TicketCategory" rx="2.5" ry="2.5" style="stroke:#181818;stroke-width:0.5;" width="140.7891" x="833.55" y="648.13"/><ellipse cx="849.6706" cy="664.13" fill="#ADD1B2" rx="11" ry="11" style="stroke:#181818;stroke-width:1.0;"/><path d="M852.6394,669.7706 Q852.0612,670.0675 851.4206,670.2081 Q850.78,670.3644 850.0769,670.3644 Q847.5769,670.3644 846.2487,668.7238 Q844.9362,667.0675 844.9362,663.9425 Q844.9362,660.8175 846.2487,659.1613 Q847.5769,657.505 850.0769,657.505 Q850.78,657.505 851.4206,657.6613 Q852.0769,657.8175 852.6394,658.1144 L852.6394,660.8331 Q852.0144,660.255 851.4206,659.9894 Q850.8269,659.7081 850.2019,659.7081 Q848.8581,659.7081 848.1706,660.7863 Q847.4831,661.8488 847.4831,663.9425 Q847.4831,666.0363 848.1706,667.1144 Q848.8581,668.1769 850.2019,668.1769 Q850.8269,668.1769 851.4206,667.9113 Q852.0144,667.63 852.6394,667.0519 L852.6394,669.7706 Z " fill="#000000"/><text fill="#000000" font-family="sans-serif" font-size="14" lengthAdjust="spacing" textLength="106.2988" x="863.9196" y="668.9767">TicketCategory</text><line style="stroke:#181818;stroke-width:0.5;" x1="834.55" x2="973.3391" y1="680.13" y2="680.13"/><text fill="#FF0000" font-family="sans-serif" font-size="14" font-weight="bold" lengthAdjust="spacing" textLength="91.4238" x="839.55" y="697.1251">category_id</text><text fill="#000000" font-family="sans-serif" font-size="14" lengthAdjust="spacing" textLength="27.4189" x="930.9738" y="697.1251">: int</text><text fill="#0000FF" font-family="sans-serif" font-size="14" font-style="italic" lengthAdjust="spacing" textLength="60.7441" x="839.55" y="713.422">group_id</text><text fill="#000000" font-family="sans-serif" font-size="14" lengthAdjust="spacing" textLength="27.4189" x="900.2941" y="713.422">: int</text><text fill="#000000" font-family="sans-serif" font-size="14" lengthAdjust="spacing" textLength="90.6514" x="839.55" y="729.7189">name: String</text><text fill="#000000" font-family="sans-serif" font-size="14" lengthAdjust="spacing" textLength="128.7891" x="839.55" y="746.0157">description: String</text><line style="stroke:#181818;stroke-width:0.5;" x1="834.55" x2="973.3391" y1="753.3175" y2="753.3175"/></g><!--reverse link User to Admin--><g id="link_User_Admin"><path codeLine="91" d="M366.95,219.81 C366.95,279.93 366.95,335.4 366.95,376.29 " fill="none" id="User-backto-Admin" style="stroke:#181818;stroke-width:1.0;"/><polygon fill="none" points="366.95,201.81,360.95,219.81,372.95,219.81,366.95,201.81" style="stroke:#181818;stroke-width:1.0;"/></g><!--reverse link User to Employee--><g id="link_User_Employee"><path codeLine="92" d="M413.3533,218.4625 C438.0233,278.5825 461.32,335.4 478.1,376.29 " fill="none" id="User-backto-Employee" style="stroke:#181818;stroke-width:1.0;"/><polygon fill="none" points="406.52,201.81,407.8025,220.7403,418.9041,216.1847,406.52,201.81" style="stroke:#181818;stroke-width:1.0;"/></g><!--reverse link User to Technician--><g id="link_User_Technician"><path codeLine="93" d="M483.7679,199.2322 C514.3979,226.3922 533.15,246.11 558.95,278.68 C580.76,306.22 599.63,341.37 612.41,368.01 " fill="none" id="User-backto-Technician" style="stroke:#181818;stroke-width:1.0;"/><polygon fill="none" points="470.3,187.29,479.7872,203.7215,487.7486,194.7429,470.3,187.29" style="stroke:#181818;stroke-width:1.0;"/></g><!--link Group to Technician--><g id="link_Group_Technician"><path codeLine="95" d="M704,153.23 C686.7,212.66 659.1972,307.1292 643.1172,362.3592 " fill="none" id="Group-to-Technician" style="stroke:#181818;stroke-width:1.0;"/><polygon fill="#181818" points="641.44,368.12,647.7964,360.5969,642.8377,363.3193,640.1153,358.3606,641.44,368.12" style="stroke:#181818;stroke-width:1.0;"/><text fill="#000000" font-family="sans-serif" font-size="13" lengthAdjust="spacing" textLength="22.9785" x="679.95" y="244.7469">has</text><text fill="#000000" font-family="sans-serif" font-size="13" lengthAdjust="spacing" textLength="8.271" x="693.6069" y="172.8839">1</text><text fill="#000000" font-family="sans-serif" font-size="13" lengthAdjust="spacing" textLength="23.0356" x="618.4415" y="357.2501">0..*</text></g><!--link Group to Ticket--><g id="link_Group_Ticket"><path codeLine="96" d="M732.21,153.23 C742.27,187.03 754.5478,228.2595 767.7678,272.6595 " fill="none" id="Group-to-Ticket" style="stroke:#181818;stroke-width:1.0;"/><polygon fill="#181818" points="769.48,278.41,770.7454,268.6428,768.0532,273.6179,763.078,270.9257,769.48,278.41" style="stroke:#181818;stroke-width:1.0;"/><text fill="#000000" font-family="sans-serif" font-size="13" lengthAdjust="spacing" textLength="22.9785" x="760.95" y="244.7469">has</text><text fill="#000000" font-family="sans-serif" font-size="13" lengthAdjust="spacing" textLength="8.271" x="725.6076" y="172.8839">1</text><text fill="#000000" font-family="sans-serif" font-size="13" lengthAdjust="spacing" textLength="23.0356" x="743.5923" y="267.52">0..*</text></g><!--link Ticket to Comment--><g id="link_Ticket_Comment"><path codeLine="99" d="M718.68,523.82 C712.92,529.05 706.99,533.99 700.95,538.53 C611.5,605.7 496.2208,650.3797 415.0108,676.5497 " fill="none" id="Ticket-to-Comment" style="stroke:#181818;stroke-width:1.0;"/><polygon fill="#181818" points="409.3,678.39,419.0931,679.4367,414.059,676.8564,416.6393,671.8223,409.3,678.39" style="stroke:#181818;stroke-width:1.0;"/><text fill="#000000" font-family="sans-serif" font-size="13" lengthAdjust="spacing" textLength="22.9785" x="654.95" y="581.5969">has</text><text fill="#000000" font-family="sans-serif" font-size="13" lengthAdjust="spacing" textLength="8.271" x="702.9675" y="529.8122">1</text><text fill="#000000" font-family="sans-serif" font-size="13" lengthAdjust="spacing" textLength="23.0356" x="416.9466" y="672.8719">0..*</text></g><!--link Ticket to Attachment--><g id="link_Ticket_Attachment"><path codeLine="100" d="M765.4,538.61 C756.85,564.54 749.9297,585.532 741.9597,609.692 " fill="none" id="Ticket-to-Attachment" style="stroke:#181818;stroke-width:1.0;"/><polygon fill="#181818" points="740.08,615.39,746.6981,608.0962,741.6464,610.6417,739.1009,605.5899,740.08,615.39" style="stroke:#181818;stroke-width:1.0;"/><text fill="#000000" font-family="sans-serif" font-size="13" lengthAdjust="spacing" textLength="22.9785" x="753.95" y="581.5969">has</text><text fill="#000000" font-family="sans-serif" font-size="13" lengthAdjust="spacing" textLength="8.271" x="754.7168" y="558.63">1</text><text fill="#000000" font-family="sans-serif" font-size="13" lengthAdjust="spacing" textLength="23.0356" x="718.542" y="604.4439">0..*</text></g><!--link Ticket to TicketCategory--><g id="link_Ticket_TicketCategory"><path codeLine="101" d="M850.05,538.61 C862.55,576.89 873.7185,611.1161 883.8385,642.1261 " fill="none" id="Ticket-to-TicketCategory" style="stroke:#181818;stroke-width:1.0;"/><polygon fill="#181818" points="885.7,647.83,886.7104,638.0331,884.1488,643.0767,879.1052,640.5151,885.7,647.83" style="stroke:#181818;stroke-width:1.0;"/><text fill="#000000" font-family="sans-serif" font-size="13" lengthAdjust="spacing" textLength="97.6841" x="864.95" y="581.5969">categorized_as</text><text fill="#000000" font-family="sans-serif" font-size="13" lengthAdjust="spacing" textLength="23.0356" x="828.8202" y="558.63">0..*</text><text fill="#000000" font-family="sans-serif" font-size="13" lengthAdjust="spacing" textLength="8.271" x="875.0055" y="637.057">1</text></g><!--link User to Notification--><g id="link_User_Notification"><path codeLine="104" d="M316.2,201.81 C296.43,239.39 276.713,276.8697 257.363,313.6597 " fill="none" id="User-to-Notification" style="stroke:#181818;stroke-width:1.0;"/><polygon fill="#181818" points="254.57,318.97,262.2997,312.8666,256.8975,314.5448,255.2193,309.1426,254.57,318.97" style="stroke:#181818;stroke-width:1.0;"/><text fill="#000000" font-family="sans-serif" font-size="13" lengthAdjust="spacing" textLength="54.5645" x="298.95" y="244.7469">receives</text><text fill="#000000" font-family="sans-serif" font-size="13" lengthAdjust="spacing" textLength="8.271" x="304.1897" y="221.5908">1</text><text fill="#000000" font-family="sans-serif" font-size="13" lengthAdjust="spacing" textLength="23.0356" x="234.3706" y="308.3015">0..*</text></g><!--link User to Comment--><g id="link_User_Comment"><path codeLine="105" d="M263.66,134.37 C193.76,160 106.67,205.02 63.95,278.68 C6,378.58 8.6,437.17 63.95,538.53 C99.59,603.83 167.818,644.7667 227.198,670.5967 " fill="none" id="User-to-Comment" style="stroke:#181818;stroke-width:1.0;"/><polygon fill="#181818" points="232.7,672.99,226.0426,665.732,228.115,670.9956,222.8515,673.068,232.7,672.99" style="stroke:#181818;stroke-width:1.0;"/><text fill="#000000" font-family="sans-serif" font-size="13" lengthAdjust="spacing" textLength="39.457" x="64.95" y="413.1769">writes</text><text fill="#000000" font-family="sans-serif" font-size="13" lengthAdjust="spacing" textLength="8.271" x="247.7913" y="133.0966">1</text><text fill="#000000" font-family="sans-serif" font-size="13" lengthAdjust="spacing" textLength="23.0356" x="202.0648" y="667.0585">0..*</text></g><!--SRC=[jLN9Rjim4BthAnYTcW9EcgiW20Y2ehTUsfu5cXpBWr2aG8wIgCk_breiQxLS1FNDynvdvisc6ma7rC0AYpctLVeCrOUtMnOBeuoDBCWatYTlyVq-YUyRMnBST4yEnW9cUl9ahqf8OgpVuFbD81HtZlrmODclWFdVC23AsuYXfWOeFKVp72BsZIpgh352pb6DB8Ntzsgi71cjKUDtZZYLRcGI5ZY1J3b5Z307JycBDd8XLn1j20yeEA7HwSddtlXeN0T_JkeUPOwwapSiJY-lPtxE2sKgWAl8tq4SDGha5trFWSoQiaZdthxKzgqUpEelmGcBHQs_jvyJHF4CjE2J6Y1TpP5wPUcrEgQmxmbaniTRPvWy1tqX2qx4nN7E8IIrNOMLAVDbC1QfUlVeMN16lSoWllXFhRo5wcyAtsfFlObZr4TtF8DtYvAWWDOrVHsisuAmqJR-G_P3jBudAO7VGv_YLj-NP4-lmELIU61LxMC_VmjQruPpguzp4LGLOqDfrVzkP7iPdheTNPhHpVLTsFzhhrFGV6xYtxjTUve7_qy7U60wdzaWQ8za-12otIvXuQUxku_XW12n8tShf4PnImY2xZ9EEDtAjgHbodacngmMROWFuQIy4UkgYJ_hZhXJ0IQkXyiL-S4KW2_W5gbzeg_-b87x2m00]--></g></svg>